<?xml version="1.0" standalone="no"?>
<!DOCTYPE svg PUBLIC "-//W3C//DTD SVG 20010904//EN"
 "http://www.w3.org/TR/2001/REC-SVG-20010904/DTD/svg10.dtd">
<svg version="1.0" xmlns="http://www.w3.org/2000/svg"
 width="700.000000pt" height="700.000000pt" viewBox="0 0 700.000000 700.000000"
 preserveAspectRatio="xMidYMid meet">
<metadata>
Created by potrace 1.11, written by Peter Selinger 2001-2013
</metadata>
<g transform="translate(0.000000,700.000000) scale(0.100000,-0.100000)"
fill="#000000" stroke="none">
<path d="M3239 6996 c-2 -2 -40 -6 -84 -10 -686 -57 -1328 -322 -1899 -786
-95 -78 -292 -270 -387 -380 -260 -300 -437 -586 -604 -975 -69 -160 -172
-499 -191 -625 -3 -19 -7 -43 -10 -52 -6 -20 -9 -39 -19 -98 -3 -25 -9 -58
-11 -74 -3 -16 -7 -50 -9 -75 -3 -25 -8 -82 -12 -126 -10 -97 -10 -491 0 -595
14 -153 20 -198 43 -325 40 -212 68 -319 130 -505 98 -290 301 -706 344 -705
16 1 139 13 200 20 19 3 64 7 100 10 36 3 85 8 110 10 25 3 70 7 100 10 90 8
173 16 200 20 23 3 106 11 205 20 22 2 65 6 95 9 56 7 81 9 205 21 39 4 86 8
105 10 47 6 254 26 310 30 62 6 150 15 180 20 14 2 68 6 120 10 52 3 111 7
130 9 19 3 64 7 100 11 36 3 79 7 95 9 37 5 185 18 203 19 24 1 41 51 37 108
-3 57 -19 102 -80 233 -89 192 -96 227 -100 500 -2 127 -6 260 -10 296 -3 36
-8 86 -10 111 -6 68 -20 96 -66 137 -66 58 -77 94 -74 230 6 249 62 423 189
591 68 91 68 94 -59 196 -121 98 -163 165 -157 252 2 28 62 88 93 95 126 28
414 121 443 143 88 67 250 120 389 127 32 2 57 5 58 8 0 3 2 23 5 45 24 229
75 345 175 395 163 84 408 -9 461 -176 15 -48 13 -75 -22 -322 -13 -99 -54
-175 -130 -245 -34 -31 -65 -57 -69 -57 -16 0 -83 -71 -191 -205 -63 -77 -117
-142 -120 -145 -21 -18 -164 -210 -179 -239 -10 -20 -23 -58 -29 -86 -11 -53
-11 -413 1 -431 5 -9 12 -37 21 -93 2 -8 -1 -35 -6 -60 -5 -25 -10 -64 -13
-86 -3 -22 -7 -56 -10 -75 -8 -58 -18 -207 -30 -425 -3 -60 -8 -130 -10 -155
-4 -45 -18 -363 -18 -410 0 -55 14 -180 23 -204 5 -14 18 -30 29 -35 18 -10
109 -34 175 -45 107 -19 222 -47 268 -65 55 -21 82 -132 49 -206 -26 -59 -54
-71 -216 -91 -22 -2 -51 -7 -65 -9 -30 -5 -87 -13 -155 -20 -27 -3 -61 -7 -75
-10 -14 -2 -47 -7 -75 -10 -27 -3 -64 -8 -81 -11 -17 -3 -46 -6 -65 -9 -47 -5
-116 -14 -164 -21 -22 -3 -51 -7 -65 -9 -32 -5 -89 -12 -160 -20 -57 -7 -76
-9 -145 -19 -22 -3 -62 -8 -90 -11 -27 -3 -59 -7 -70 -9 -11 -2 -47 -7 -80
-10 -33 -4 -73 -9 -90 -11 -16 -2 -50 -6 -75 -9 -25 -3 -63 -8 -85 -11 -178
-21 -307 -36 -345 -41 -43 -4 -94 -11 -150 -19 -14 -2 -52 -7 -85 -10 -33 -4
-71 -8 -85 -10 -14 -2 -56 -6 -95 -10 -38 -4 -72 -8 -75 -10 -3 -2 -34 -6 -70
-10 -36 -3 -76 -8 -90 -10 -14 -2 -45 -7 -70 -10 -25 -3 -56 -8 -70 -10 -14
-2 -69 -9 -123 -16 -53 -6 -97 -15 -97 -20 0 -4 53 -61 118 -126 502 -501
1127 -831 1812 -957 84 -15 100 -18 215 -31 33 -4 74 -9 90 -12 57 -9 500 -10
595 -2 390 36 756 129 1093 279 129 57 165 75 297 147 321 176 667 458 919
748 504 582 792 1275 857 2063 12 145 5 524 -11 622 -2 14 -7 52 -11 85 -9 81
-10 90 -24 165 -7 36 -14 76 -17 90 -14 80 -70 287 -104 392 -249 751 -738
1395 -1386 1824 -135 90 -129 86 -275 165 -243 133 -633 282 -828 315 -14 3
-38 9 -55 14 -37 11 -246 46 -335 55 -36 4 -74 9 -85 12 -23 5 -531 14 -536 9z"/>
</g>
</svg>
